<?xml version="1.0" standalone="no"?>
<!DOCTYPE svg PUBLIC "-//W3C//DTD SVG 20010904//EN"
 "http://www.w3.org/TR/2001/REC-SVG-20010904/DTD/svg10.dtd">
<svg version="1.0" xmlns="http://www.w3.org/2000/svg"
 width="80.000000pt" height="100.000000pt" viewBox="0 0 80.000000 100.000000"
 preserveAspectRatio="xMidYMid meet">

<g transform="translate(0.000000,100.000000) scale(0.100000,-0.100000)"
fill="#000000" stroke="none">
<path d="M196 974 c-22 -22 -26 -36 -26 -80 l0 -53 -82 -3 c-70 -3 -83 -6 -86
-20 -3 -14 3 -18 27 -18 l31 0 0 -371 0 -371 29 -29 29 -29 282 0 282 0 29 29
29 29 0 371 0 371 31 0 c24 0 30 4 27 18 -3 14 -16 17 -86 20 l-82 3 0 53 c0
44 -4 58 -26 80 l-27 26 -177 0 -177 0 -27 -26z m382 -81 l3 -53 -180 0 -181
0 0 48 c0 27 3 52 7 56 4 3 84 5 177 4 l171 -3 3 -52z m100 -465 l-3 -373
-280 0 -280 0 -3 373 -2 372 285 0 285 0 -2 -372z"/>
<path d="M292 662 c-9 -7 -12 -63 -10 -248 3 -231 4 -239 23 -239 19 0 20 7
20 244 0 154 -4 246 -10 248 -5 1 -16 -1 -23 -5z"/>
<path d="M472 658 c-9 -9 -12 -67 -12 -204 0 -230 6 -284 30 -284 23 0 30 62
29 240 -2 222 -13 282 -47 248z"/>
</g>
</svg>
